<?xml version="1.0" encoding="UTF-8" standalone="no"?>
<svg
   version="1.0"
   width="2023.000000pt"
   height="683.000000pt"
   viewBox="0 0 2023.000000 683.000000"
   preserveAspectRatio="xMidYMid meet"
   id="svg6"
   sodipodi:docname="baaki-small.svg"
   inkscape:version="1.4.2 (f4327f4, 2025-05-13)"
   xmlns:inkscape="http://www.inkscape.org/namespaces/inkscape"
   xmlns:sodipodi="http://sodipodi.sourceforge.net/DTD/sodipodi-0.dtd"
   xmlns="http://www.w3.org/2000/svg"
   xmlns:svg="http://www.w3.org/2000/svg">
  <defs
     id="defs6" />
  <sodipodi:namedview
     id="namedview6"
     pagecolor="#ffffff"
     bordercolor="#000000"
     borderopacity="0.25"
     inkscape:showpageshadow="2"
     inkscape:pageopacity="0.0"
     inkscape:pagecheckerboard="0"
     inkscape:deskcolor="#d1d1d1"
     inkscape:document-units="pt"
     inkscape:zoom="0.23239625"
     inkscape:cx="1084.3548"
     inkscape:cy="1052.0824"
     inkscape:window-width="1920"
     inkscape:window-height="991"
     inkscape:window-x="-9"
     inkscape:window-y="-9"
     inkscape:window-maximized="1"
     inkscape:current-layer="svg6" />
  <rect
     style="fill:#ffffff;stroke-width:0.75"
     id="rect6"
     width="2022.8152"
     height="681.2832"
     x="1.6136229"
     y="3.2272699" />
  <g
     transform="matrix(0.1,0,0,-0.1,-3.22721,695.90898)"
     fill="#000000"
     stroke="none"
     id="g6">
    <path
       d="m 19022,6330 c -172,-45 -338,-172 -429,-328 -71,-121 -104,-293 -83,-433 36,-246 164,-426 380,-534 104,-51 180,-68 305,-68 128,0 203,16 302,67 180,90 301,229 359,411 105,331 -45,678 -364,839 -130,66 -322,84 -470,46 z"
       id="path1" />
    <path
       d="M 450,3455 V 910 h 575 574 l 3,150 3,149 65,-55 c 198,-169 436,-284 695,-335 108,-22 476,-19 582,4 285,61 540,184 743,357 216,184 364,381 496,655 133,279 189,535 189,870 -1,346 -61,612 -205,902 -76,154 -145,264 -230,368 -262,320 -587,522 -981,610 -111,25 -417,31 -544,11 -286,-44 -555,-170 -765,-360 l -45,-41 -3,903 -2,902 H 1025 450 Z m 2080,105 c 541,-86 844,-706 607,-1241 -129,-292 -411,-478 -724,-479 -117,0 -180,11 -276,50 -104,43 -173,88 -259,169 -385,364 -357,1014 57,1338 179,140 383,196 595,163 z"
       id="path2" />
    <path
       d="M 14330,3455 V 910 h 580 580 v 707 706 l 20,-18 c 11,-10 298,-328 638,-707 l 617,-688 h 694 c 660,0 693,1 679,18 -37,43 -1385,1582 -1491,1701 l -118,134 24,26 c 13,14 145,166 293,336 864,995 1184,1365 1184,1370 0,3 -312,5 -692,4 h -693 l -575,-680 -575,-680 -3,1431 -2,1430 h -580 -580 z"
       id="path3" />
    <path
       d="m 6380,4603 c -137,-14 -373,-84 -502,-149 -481,-242 -831,-687 -969,-1233 -42,-164 -59,-316 -59,-519 0,-260 28,-437 101,-657 161,-485 508,-889 941,-1095 220,-104 373,-139 639,-147 233,-7 339,7 520,67 189,63 376,169 512,290 l 57,52 V 1061 910 h 580 580 v 1795 1795 h -580 -580 v -152 -152 l -37,36 c -193,183 -473,315 -768,363 -82,14 -337,18 -435,8 z m 621,-1058 c 138,-36 262,-110 369,-219 177,-181 259,-404 247,-668 -8,-181 -57,-328 -159,-474 -150,-217 -388,-344 -648,-344 -295,0 -560,165 -702,436 -126,242 -137,539 -29,792 105,249 335,439 587,487 95,18 245,13 335,-10 z"
       id="path4" />
    <path
       d="m 11005,4603 c -80,-10 -237,-48 -328,-79 -338,-117 -676,-389 -887,-714 -107,-165 -225,-451 -265,-639 -69,-329 -64,-689 15,-996 32,-126 68,-220 135,-360 97,-201 198,-347 344,-499 243,-250 518,-409 836,-481 162,-37 448,-47 607,-20 262,43 527,168 726,342 l 62,55 V 1061 910 h 580 580 v 1795 1795 h -580 -579 l -3,-149 -3,-149 -69,59 c -214,182 -462,293 -756,339 -61,9 -348,12 -415,3 z m 570,-1048 c 330,-58 597,-337 661,-690 95,-533 -286,-1025 -795,-1025 -297,0 -558,162 -703,436 -115,219 -135,482 -56,721 95,287 338,507 615,557 104,19 173,19 278,1 z"
       id="path5" />
    <path
       d="M 18620,2705 V 910 h 580 580 v 1795 1795 h -580 -580 z"
       id="path6" />
  </g>
</svg>
